<?xml version="1.0" standalone="no"?>
<!DOCTYPE svg PUBLIC "-//W3C//DTD SVG 20010904//EN"
 "http://www.w3.org/TR/2001/REC-SVG-20010904/DTD/svg10.dtd">
<svg version="1.0" xmlns="http://www.w3.org/2000/svg"
 width="48.000000pt" height="48.000000pt" viewBox="0 0 48.000000 48.000000"
 preserveAspectRatio="xMidYMid meet">
<metadata>
Created by potrace 1.15, written by Peter Selinger 2001-2017
</metadata>
<g transform="translate(0.000000,48.000000) scale(0.100000,-0.100000)"
fill="#000000" stroke="none">
<path d="M160 422 c0 -11 10 -23 22 -29 20 -9 19 -11 -24 -32 -44 -21 -78 -66
-78 -103 0 -7 -9 -19 -21 -26 -26 -17 -22 -53 8 -68 13 -6 33 -26 46 -45 70
-104 184 -104 254 0 13 19 33 39 46 45 29 15 34 50 9 68 -11 7 -22 27 -26 45
-8 36 -66 93 -95 93 -24 0 -33 11 -21 24 5 7 5 17 0 26 -7 12 -13 13 -28 4
-14 -9 -24 -9 -43 2 -33 19 -49 17 -49 -4z m181 -171 c28 -34 23 -67 -16 -127
-58 -87 -112 -87 -170 0 -41 62 -44 98 -11 131 21 21 31 23 101 21 68 -1 80
-4 96 -25z"/>
</g>
</svg>
